<mxfile host="app.diagrams.net" modified="2023-08-25T17:25:29.058Z" agent="Mozilla/5.0 (X11; Linux x86_64; rv:103.0) Gecko/20100101 Firefox/103.0" etag="W03KA8Ob2r8FY_E8WoKp" version="21.6.9" type="github">
  <diagram id="R2lEEEUBdFMjLlhIrx00" name="Page-1">
    <mxGraphModel dx="1434" dy="689" grid="1" gridSize="10" guides="1" tooltips="1" connect="1" arrows="1" fold="1" page="1" pageScale="1" pageWidth="850" pageHeight="1100" math="0" shadow="0" extFonts="Permanent Marker^https://fonts.googleapis.com/css?family=Permanent+Marker">
      <root>
        <mxCell id="0" />
        <mxCell id="1" parent="0" />
        <mxCell id="ckrIHC8iFK14Tu46AVHV-7" value="" style="edgeStyle=orthogonalEdgeStyle;rounded=0;orthogonalLoop=1;jettySize=auto;html=1;" edge="1" parent="1" source="ckrIHC8iFK14Tu46AVHV-5" target="ckrIHC8iFK14Tu46AVHV-6">
          <mxGeometry relative="1" as="geometry" />
        </mxCell>
        <mxCell id="ckrIHC8iFK14Tu46AVHV-5" value="&lt;div&gt;VENDEDOR&lt;/div&gt;&lt;div&gt;---------------&lt;/div&gt;&lt;div&gt;CÓDIGO&lt;/div&gt;&lt;div&gt;NOME&lt;/div&gt;&lt;div&gt;ENDEREÇO&lt;/div&gt;&lt;div&gt;COMISSÃO&lt;/div&gt;" style="rounded=1;whiteSpace=wrap;html=1;" vertex="1" parent="1">
          <mxGeometry x="120" y="100" width="120" height="130" as="geometry" />
        </mxCell>
        <mxCell id="ckrIHC8iFK14Tu46AVHV-11" value="" style="edgeStyle=orthogonalEdgeStyle;rounded=0;orthogonalLoop=1;jettySize=auto;html=1;" edge="1" parent="1" source="ckrIHC8iFK14Tu46AVHV-6" target="ckrIHC8iFK14Tu46AVHV-10">
          <mxGeometry relative="1" as="geometry" />
        </mxCell>
        <mxCell id="ckrIHC8iFK14Tu46AVHV-6" value="ATENDER" style="rhombus;whiteSpace=wrap;html=1;rounded=1;" vertex="1" parent="1">
          <mxGeometry x="290" y="125" width="80" height="80" as="geometry" />
        </mxCell>
        <mxCell id="ckrIHC8iFK14Tu46AVHV-13" value="" style="edgeStyle=orthogonalEdgeStyle;rounded=0;orthogonalLoop=1;jettySize=auto;html=1;" edge="1" parent="1" source="ckrIHC8iFK14Tu46AVHV-10" target="ckrIHC8iFK14Tu46AVHV-12">
          <mxGeometry relative="1" as="geometry" />
        </mxCell>
        <mxCell id="ckrIHC8iFK14Tu46AVHV-10" value="&lt;div&gt;CLIENTE&lt;/div&gt;&lt;div&gt;------------&lt;/div&gt;&lt;div&gt;CD&lt;/div&gt;&lt;div&gt;NM&lt;/div&gt;&lt;div&gt;FAT&lt;/div&gt;&lt;div&gt;LIM:DC&lt;br&gt;&lt;/div&gt;" style="whiteSpace=wrap;html=1;rounded=1;" vertex="1" parent="1">
          <mxGeometry x="430" y="135" width="120" height="115" as="geometry" />
        </mxCell>
        <mxCell id="ckrIHC8iFK14Tu46AVHV-15" value="" style="edgeStyle=orthogonalEdgeStyle;rounded=0;orthogonalLoop=1;jettySize=auto;html=1;" edge="1" parent="1" source="ckrIHC8iFK14Tu46AVHV-12" target="ckrIHC8iFK14Tu46AVHV-14">
          <mxGeometry relative="1" as="geometry" />
        </mxCell>
        <mxCell id="ckrIHC8iFK14Tu46AVHV-12" value="FAZ" style="rhombus;whiteSpace=wrap;html=1;rounded=1;" vertex="1" parent="1">
          <mxGeometry x="450" y="280" width="80" height="80" as="geometry" />
        </mxCell>
        <mxCell id="ckrIHC8iFK14Tu46AVHV-17" value="" style="edgeStyle=orthogonalEdgeStyle;rounded=0;orthogonalLoop=1;jettySize=auto;html=1;" edge="1" parent="1" source="ckrIHC8iFK14Tu46AVHV-14" target="ckrIHC8iFK14Tu46AVHV-16">
          <mxGeometry relative="1" as="geometry" />
        </mxCell>
        <mxCell id="ckrIHC8iFK14Tu46AVHV-14" value="&lt;div&gt;PEDIDO&lt;/div&gt;&lt;div&gt;------------&lt;/div&gt;&lt;div&gt;NUM&lt;/div&gt;&lt;div&gt;DATA&lt;br&gt;&lt;/div&gt;" style="whiteSpace=wrap;html=1;rounded=1;" vertex="1" parent="1">
          <mxGeometry x="430" y="390" width="120" height="90" as="geometry" />
        </mxCell>
        <mxCell id="ckrIHC8iFK14Tu46AVHV-19" value="" style="edgeStyle=orthogonalEdgeStyle;rounded=0;orthogonalLoop=1;jettySize=auto;html=1;" edge="1" parent="1" source="ckrIHC8iFK14Tu46AVHV-16" target="ckrIHC8iFK14Tu46AVHV-18">
          <mxGeometry relative="1" as="geometry" />
        </mxCell>
        <mxCell id="ckrIHC8iFK14Tu46AVHV-16" value="T" style="rhombus;whiteSpace=wrap;html=1;rounded=1;" vertex="1" parent="1">
          <mxGeometry x="450" y="520" width="80" height="80" as="geometry" />
        </mxCell>
        <mxCell id="ckrIHC8iFK14Tu46AVHV-21" value="" style="edgeStyle=orthogonalEdgeStyle;rounded=0;orthogonalLoop=1;jettySize=auto;html=1;" edge="1" parent="1" source="ckrIHC8iFK14Tu46AVHV-31" target="ckrIHC8iFK14Tu46AVHV-20">
          <mxGeometry relative="1" as="geometry" />
        </mxCell>
        <mxCell id="ckrIHC8iFK14Tu46AVHV-18" value="&lt;div&gt;PEÇAS&lt;/div&gt;&lt;div&gt;------------&lt;/div&gt;&lt;div&gt;CD&lt;/div&gt;&lt;div&gt;DS&lt;/div&gt;&lt;div&gt;PREÇO&lt;br&gt;&lt;/div&gt;" style="whiteSpace=wrap;html=1;rounded=1;" vertex="1" parent="1">
          <mxGeometry x="430" y="640" width="120" height="100" as="geometry" />
        </mxCell>
        <mxCell id="ckrIHC8iFK14Tu46AVHV-23" value="" style="edgeStyle=orthogonalEdgeStyle;rounded=0;orthogonalLoop=1;jettySize=auto;html=1;" edge="1" parent="1" source="ckrIHC8iFK14Tu46AVHV-20" target="ckrIHC8iFK14Tu46AVHV-22">
          <mxGeometry relative="1" as="geometry" />
        </mxCell>
        <mxCell id="ckrIHC8iFK14Tu46AVHV-20" value="T" style="rhombus;whiteSpace=wrap;html=1;rounded=1;" vertex="1" parent="1">
          <mxGeometry x="450" y="780" width="80" height="80" as="geometry" />
        </mxCell>
        <mxCell id="ckrIHC8iFK14Tu46AVHV-22" value="&lt;div&gt;ARMAZÉM&lt;/div&gt;&lt;div&gt;-----------------&lt;/div&gt;&lt;div&gt;CD&lt;/div&gt;&lt;div&gt;ED&lt;br&gt;&lt;/div&gt;" style="whiteSpace=wrap;html=1;rounded=1;" vertex="1" parent="1">
          <mxGeometry x="430" y="900" width="120" height="100" as="geometry" />
        </mxCell>
        <mxCell id="ckrIHC8iFK14Tu46AVHV-24" value="1" style="text;html=1;strokeColor=none;fillColor=none;align=center;verticalAlign=middle;whiteSpace=wrap;rounded=0;" vertex="1" parent="1">
          <mxGeometry x="240" y="135" width="60" height="30" as="geometry" />
        </mxCell>
        <mxCell id="ckrIHC8iFK14Tu46AVHV-26" value="N" style="text;html=1;strokeColor=none;fillColor=none;align=center;verticalAlign=middle;whiteSpace=wrap;rounded=0;" vertex="1" parent="1">
          <mxGeometry x="360" y="135" width="60" height="20" as="geometry" />
        </mxCell>
        <mxCell id="ckrIHC8iFK14Tu46AVHV-27" value="1" style="text;html=1;strokeColor=none;fillColor=none;align=center;verticalAlign=middle;whiteSpace=wrap;rounded=0;" vertex="1" parent="1">
          <mxGeometry x="490" y="260" width="60" height="30" as="geometry" />
        </mxCell>
        <mxCell id="ckrIHC8iFK14Tu46AVHV-28" value="N" style="text;html=1;strokeColor=none;fillColor=none;align=center;verticalAlign=middle;whiteSpace=wrap;rounded=0;" vertex="1" parent="1">
          <mxGeometry x="500" y="350" width="60" height="30" as="geometry" />
        </mxCell>
        <mxCell id="ckrIHC8iFK14Tu46AVHV-29" value="1" style="text;html=1;strokeColor=none;fillColor=none;align=center;verticalAlign=middle;whiteSpace=wrap;rounded=0;" vertex="1" parent="1">
          <mxGeometry x="500" y="490" width="60" height="30" as="geometry" />
        </mxCell>
        <mxCell id="ckrIHC8iFK14Tu46AVHV-30" value="N" style="text;html=1;strokeColor=none;fillColor=none;align=center;verticalAlign=middle;whiteSpace=wrap;rounded=0;" vertex="1" parent="1">
          <mxGeometry x="420" y="600" width="60" height="30" as="geometry" />
        </mxCell>
        <mxCell id="ckrIHC8iFK14Tu46AVHV-32" value="" style="edgeStyle=orthogonalEdgeStyle;rounded=0;orthogonalLoop=1;jettySize=auto;html=1;" edge="1" parent="1" source="ckrIHC8iFK14Tu46AVHV-18" target="ckrIHC8iFK14Tu46AVHV-31">
          <mxGeometry relative="1" as="geometry">
            <mxPoint x="490" y="740" as="sourcePoint" />
            <mxPoint x="490" y="780" as="targetPoint" />
          </mxGeometry>
        </mxCell>
        <mxCell id="ckrIHC8iFK14Tu46AVHV-31" value="N" style="text;html=1;strokeColor=none;fillColor=none;align=center;verticalAlign=middle;whiteSpace=wrap;rounded=0;" vertex="1" parent="1">
          <mxGeometry x="490" y="750" width="60" height="30" as="geometry" />
        </mxCell>
        <mxCell id="ckrIHC8iFK14Tu46AVHV-33" value="1" style="text;html=1;strokeColor=none;fillColor=none;align=center;verticalAlign=middle;whiteSpace=wrap;rounded=0;" vertex="1" parent="1">
          <mxGeometry x="490" y="860" width="60" height="30" as="geometry" />
        </mxCell>
      </root>
    </mxGraphModel>
  </diagram>
</mxfile>
